<svg width="126" height="100" viewBox="0 0 126 100" fill="none" xmlns="http://www.w3.org/2000/svg">
<path d="M95.325 37.4989H65.635V48.4374C65.635 56.1919 59.3259 62.5011 51.5713 62.5011C43.8167 62.5011 37.5076 56.1919 37.5076 48.4374V24.6854L24.8308 32.3032C21.0609 34.5495 18.756 38.6318 18.756 43.0072V52.2463L3.12972 61.2705C0.141185 62.9894 -0.894058 66.8178 0.84437 69.8064L16.4707 96.879C18.1896 99.8675 22.018 100.883 25.0066 99.1643L45.2036 87.5032H71.8855C78.7806 87.5032 84.3866 81.8972 84.3866 75.0021H87.5118C90.9692 75.0021 93.7624 72.2089 93.7624 68.7516V56.2505H95.325C97.9229 56.2505 100.013 54.1605 100.013 51.5626V42.1868C100.013 39.589 97.9229 37.4989 95.325 37.4989ZM124.175 30.1936L108.549 3.12104C106.83 0.132505 103.001 -0.883206 100.013 0.835689L79.8159 12.4968H59.8533C57.5093 12.4968 55.224 13.1609 53.2316 14.3915L46.6881 18.4739C44.852 19.6068 43.7582 21.6187 43.7582 23.7673V48.4374C43.7582 52.7541 47.2545 56.2505 51.5713 56.2505C55.8881 56.2505 59.3845 52.7541 59.3845 48.4374V31.2484H95.325C101.361 31.2484 106.263 36.1512 106.263 42.1868V47.7537L121.89 38.7295C124.878 36.9911 125.894 33.1822 124.175 30.1936Z" fill="white" fill-opacity="0.91"/>
</svg>
