<svg width="140" height="140" viewBox="0 0 140 140" fill="none" xmlns="http://www.w3.org/2000/svg">
<path d="M122.4 80L105.733 46.6667H110.333C111.217 46.6667 112.065 46.3155 112.69 45.6904C113.315 45.0652 113.667 44.2174 113.667 43.3333C113.667 42.4493 113.315 41.6014 112.69 40.9763C112.065 40.3512 111.217 40 110.333 40H105.067C101.486 36.0994 97.1704 32.9434 92.3681 30.7127C87.5657 28.4819 82.3706 27.2203 77.08 27L77 26.6667C77 24.8986 76.2976 23.2029 75.0474 21.9526C73.7971 20.7024 72.1014 20 70.3333 20C68.5652 20 66.8695 20.7024 65.6193 21.9526C64.369 23.2029 63.6667 24.8986 63.6667 26.6667V27C52.892 27.4466 42.7239 32.1081 35.3533 39.98L30.3333 40C29.4493 40 28.6014 40.3512 27.9763 40.9763C27.3512 41.6014 27 42.4493 27 43.3333C27 44.2174 27.3512 45.0652 27.9763 45.6904C28.6014 46.3155 29.4493 46.6667 30.3333 46.6667H34.9333L18.2667 80H17C17 87.3333 25.9333 93.3333 37 93.3333C48.0667 93.3333 57 87.3333 57 80H55.7333L38.7333 46.0667C39.1516 45.8153 39.5126 45.4792 39.7933 45.08C42.7422 41.6161 46.3898 38.8146 50.4972 36.8592C54.6045 34.9037 59.0788 33.8385 63.6267 33.7333L63.6667 106.667H57V113.333H43.6667V120H97V113.333H83.6667V106.667H77V33.7333C81.4958 33.8227 85.9199 34.8767 89.973 36.8239C94.0262 38.7712 97.6139 41.5662 100.493 45.02C100.806 45.5389 101.25 45.9665 101.78 46.26L84.9333 80H83.6667C83.6667 87.3333 92.6 93.3333 103.667 93.3333C114.733 93.3333 123.667 87.3333 123.667 80H122.4ZM50.3333 80H23.6667L37 53.7333L50.3333 80ZM90.3333 80L103.667 53.7333L117 80H90.3333Z" fill="white" fill-opacity="0.91"/>
</svg>
