<svg width="140" height="140" viewBox="0 0 140 140" fill="none" xmlns="http://www.w3.org/2000/svg">
<path d="M26.252 30L25.252 32.624L11.252 70H6V78H10V86C10 99.188 20.812 110 34 110H42C55.188 110 66 99.188 66 86V74C66 71.736 67.736 70 70 70C72.264 70 74 71.736 74 74V86C74 99.188 84.812 110 98 110H106C119.188 110 130 99.188 130 86V78H134V70H128.748L114.748 32.624L113.748 30H106L104.876 31.5L94.876 43.5L101.124 48.5L108.752 39.248L120.252 70H81.252C79.58 65.376 75.172 62 70 62C64.828 62 60.42 65.376 58.748 70H19.748L31.252 39.248L38.876 48.5L45.124 43.5L35.124 31.5L34 30H26.252ZM18 78H58V86C58 94.812 50.812 102 42 102H34C25.188 102 18 94.812 18 86V78ZM82 78H122V86C122 94.812 114.812 102 106 102H98C89.188 102 82 94.812 82 86V78Z" fill="white" fill-opacity="0.91"/>
</svg>
