<svg width="287" height="230" viewBox="0 0 287 230" fill="none" xmlns="http://www.w3.org/2000/svg">
<path d="M54.5 96H17.375C14.0929 96 10.9453 97.3038 8.62455 99.6246C6.30379 101.945 5 105.093 5 108.375V133.125C5 136.407 6.30379 139.555 8.62455 141.875C10.9453 144.196 14.0929 145.5 17.375 145.5H42.125C45.4071 145.5 48.5547 146.804 50.8754 149.125C53.1962 151.445 54.5 154.593 54.5 157.875V182.625C54.5 185.907 53.1962 189.055 50.8754 191.375C48.5547 193.696 45.4071 195 42.125 195H5M141.125 195H91.625V96H141.125M104 145.5H128.75M178.25 108.375C178.25 105.093 179.554 101.945 181.875 99.6246C184.195 97.3038 187.343 96 190.625 96H215.375C218.657 96 221.805 97.3038 224.125 99.6246C226.446 101.945 227.75 105.093 227.75 108.375V182.625C227.75 185.907 226.446 189.055 224.125 191.375C221.805 193.696 218.657 195 215.375 195H190.625C187.343 195 184.195 193.696 181.875 191.375C179.554 189.055 178.25 185.907 178.25 182.625V108.375Z" stroke="white" stroke-width="9" stroke-linecap="round" stroke-linejoin="round"/>
</svg>
