<svg width="287" height="230" viewBox="0 0 287 230" fill="none" xmlns="http://www.w3.org/2000/svg">
<path d="M173.028 115.507L94.1842 151.827C92.5003 152.595 90.671 152.993 88.8202 152.993C86.9694 152.993 85.1402 152.595 83.4562 151.827L5 115.507M173.028 157.514L94.1842 193.834C92.5003 194.603 90.671 195 88.8202 195C86.9694 195 85.1402 194.603 83.4562 193.834L5 157.514M95.089 109.691C93.1719 110.524 91.1041 110.953 89.0141 110.953C86.9241 110.953 84.8563 110.524 82.9392 109.691L9.26533 75.5684C8.06899 74.965 7.06362 74.0414 6.36118 72.9003C5.65874 71.7593 5.28682 70.4457 5.28682 69.1058C5.28682 67.7659 5.65874 66.4523 6.36118 65.3113C7.06362 64.1702 8.06899 63.2466 9.26533 62.6432L82.9392 28.262C84.8563 27.4296 86.9241 27 89.0141 27C91.1041 27 93.1719 27.4296 95.089 28.262L168.763 62.3847C169.959 62.9881 170.965 63.9117 171.667 65.0528C172.369 66.1938 172.741 67.5074 172.741 68.8473C172.741 70.1872 172.369 71.5008 171.667 72.6418C170.965 73.7829 169.959 74.7065 168.763 75.3099L95.089 109.691Z" stroke="white" stroke-width="9" stroke-linecap="round" stroke-linejoin="round"/>
</svg>
