<svg width="287" height="230" viewBox="0 0 287 230" fill="none" xmlns="http://www.w3.org/2000/svg">
<path d="M77.7441 58.0001C70.8165 57.9846 64.0625 60.1668 58.4536 64.2327C44.003 74.515 36.7827 93.1338 34.906 110.636C32.891 129.779 37.1778 151.785 48.7145 166.325C46.7983 171.955 50.6209 178.198 56.5473 178.849C58.8478 179.132 61.1731 178.575 63.0963 177.282C65.0196 175.988 66.4117 174.044 67.0173 171.807C68.9631 165.288 62.8194 158.551 55.8559 160.063C46.1563 147.015 43.1141 130.055 44.1413 114.103C45.376 98.5367 50.8875 81.9526 63.7479 72.1741C71.7485 66.2279 81.8037 66.0304 89.9229 71.4333C100.857 78.7623 107.337 92.4918 109.381 105.313L114.419 107.278L119.861 110.123C117.905 91.4744 109.026 71.937 94.417 62.9684C89.4451 59.7601 83.6612 58.0365 77.7441 58.0001ZM171.727 96.9761C161.436 96.8974 151.214 98.6568 141.542 102.172C139.515 101.05 137.151 100.702 134.887 101.193C132.624 101.683 130.615 102.979 129.235 104.838C125.343 109.827 127.635 117.649 133.926 119.605C140.001 121.689 146.668 116.8 146.421 110.538C155.441 107.484 164.95 106.135 174.463 106.557C190.02 107.249 210.664 113.017 220.156 127.774C220.906 128.949 221.786 131.764 225.302 131.725C226.107 131.706 226.894 131.485 227.591 131.081C228.288 130.677 228.871 130.103 229.287 129.413C229.703 128.724 229.937 127.94 229.969 127.135C230.002 126.331 229.83 125.531 229.47 124.81C224.275 115.032 214.437 107.772 203.433 103.14C193.714 99.0701 182.74 97.0156 171.727 96.9761ZM62.4836 104.058C57.9894 104.029 53.2976 106.982 52.8136 113.274C52.9322 125.452 69.1804 126.411 71.6991 115.644C90.3377 112.968 110.162 121.413 124.049 132.604C133.66 140.209 142.342 152.289 144.515 163.056C146.115 163.757 150.54 165.673 154.412 166.078C152.97 149.899 142.411 135.448 130.193 125.314C114.705 112.177 89.4685 102.32 68.7754 106.518C67.0791 104.915 64.8171 104.033 62.4836 104.058ZM28.7228 122.43C20.169 128.445 12.4251 135.863 7.14073 144.97C0.0784203 156.675 -3.08233 172.202 3.95034 184.638C10.4694 196.668 24.515 202.219 37.6321 202.535C45.1976 202.744 52.7484 201.754 60.0043 199.602C80.7863 193.774 103.198 177.654 112.098 156.517C113.936 156.244 115.654 155.44 117.041 154.202C118.427 152.965 119.421 151.349 119.901 149.553C121.876 142.442 115.327 136.001 108.354 137.789C101.578 139.518 98.8125 147.785 103.198 153C97.2025 166.72 85.4188 177.19 72.4597 184.223C57.7128 192.164 39.8051 195.957 25.4632 190.732C16.2773 187.729 9.24461 179.57 9.48166 168.854C9.48166 156.043 18.6083 142.412 29.8488 133.562C28.6832 128.248 28.7919 126.253 28.7228 122.42V122.43ZM227.287 137.542C226.044 137.553 224.816 137.814 223.675 138.31C222.535 138.805 221.506 139.525 220.65 140.427C217.252 143.656 217.054 149.336 219.741 152.753C214.348 160.883 204.846 166.424 195.492 169.604C177.17 175.659 154.886 174.573 138.223 165.851C134.68 164.079 131.391 161.84 128.445 159.193C127.052 157.929 126.637 157.643 125.521 157.337C120.582 156.299 117.787 162.137 121.007 165.317C133.541 177.062 151.004 182.168 167.865 182.869C174.424 183.107 181.002 182.672 187.452 181.487C203.473 178.504 220.225 170.552 228.621 156.586C234.932 155.875 238.873 148.931 236.216 143.311C235.477 141.566 234.23 140.083 232.638 139.054C231.046 138.026 229.182 137.499 227.287 137.542ZM140.9 182.129C132.702 193.191 114.764 196.451 93.9824 189.27C92.1058 190.554 90.9995 191.384 89.7055 192.233C88.4215 193.093 86.8411 193.912 83.71 195.848C108.976 206.042 137.482 206.476 150.273 185.161C147.017 184.618 143.858 183.596 140.9 182.129Z" fill="white"/>
</svg>
